<svg width="37" height="38" viewBox="0 0 37 38" fill="none" xmlns="http://www.w3.org/2000/svg">
<circle cx="18.5" cy="18.5703" r="18.5" fill="#F3F3F3"/>
<path d="M18.7406 30.0404C18.43 30.0411 18.1223 29.9805 17.8353 29.8619C17.5482 29.7433 17.2874 29.5691 17.0679 29.3493L8.97953 21.2609C8.34058 20.615 7.83655 19.8484 7.4968 19.0058C7.15705 18.1632 6.98838 17.2614 7.00062 16.3529C7.00678 15.5204 7.17712 14.6972 7.50189 13.9306C7.82666 13.1641 8.29948 12.4691 8.89327 11.8855C9.48705 11.3019 10.1901 10.8412 10.9622 10.5298C11.7343 10.2184 12.5603 10.0623 13.3928 10.0706C14.2402 10.0621 15.0807 10.2238 15.8645 10.5462C16.6482 10.8686 17.3592 11.3451 17.9553 11.9475L18.7406 12.7327L19.3845 12.0888C20.4964 10.9475 21.9843 10.2477 23.5725 10.1192C25.1607 9.99072 26.7417 10.4422 28.0226 11.3899C28.7518 11.9514 29.3529 12.6618 29.786 13.4739C30.2192 14.2859 30.4743 15.1808 30.5345 16.0992C30.5947 17.0175 30.4585 17.9381 30.1351 18.7997C29.8116 19.6613 29.3083 20.4441 28.6587 21.096L20.4132 29.3493C20.1938 29.5691 19.933 29.7433 19.6459 29.8619C19.3589 29.9805 19.0512 30.0411 18.7406 30.0404ZM13.3614 11.6333C12.1132 11.6321 10.9135 12.1165 10.0161 12.984C9.5586 13.4242 9.19477 13.9523 8.94647 14.5366C8.69817 15.121 8.57052 15.7494 8.57119 16.3843C8.5643 17.0827 8.69611 17.7754 8.95897 18.4225C9.22183 19.0695 9.61051 19.658 10.1025 20.1537L18.1909 28.2421C18.2639 28.3157 18.3507 28.3741 18.4464 28.414C18.5421 28.4538 18.6448 28.4744 18.7484 28.4744C18.8521 28.4744 18.9548 28.4538 19.0504 28.414C19.1461 28.3741 19.233 28.3157 19.306 28.2421L27.5593 19.9809C28.0438 19.4862 28.4181 18.8946 28.6576 18.245C28.8972 17.5953 28.9966 16.9023 28.9493 16.2115C28.9073 15.5137 28.7151 14.8331 28.3857 14.2164C28.0564 13.5997 27.5977 13.0615 27.041 12.6385C26.0642 11.9183 24.8589 11.5778 23.6497 11.6804C22.4404 11.7829 21.3097 12.3216 20.4682 13.1961L19.2981 14.3975C19.2251 14.4711 19.1383 14.5296 19.0426 14.5694C18.9469 14.6093 18.8443 14.6298 18.7406 14.6298C18.6369 14.6298 18.5343 14.6093 18.4386 14.5694C18.3429 14.5296 18.256 14.4711 18.183 14.3975L16.8481 13.0626C15.9286 12.1511 14.6875 11.6377 13.3928 11.6333H13.3614Z" fill="black"/>
</svg>
