<svg width="46" height="46" viewBox="0 0 46 46" fill="none" xmlns="http://www.w3.org/2000/svg">
<path d="M41.2677 39.2336L32.2707 30.2385C34.8784 27.1078 36.1787 23.0923 35.9012 19.0273C35.6237 14.9623 33.7896 11.1608 30.7807 8.41357C27.7717 5.66636 23.8194 4.18495 19.746 4.27753C15.6726 4.3701 11.7917 6.02953 8.9106 8.9106C6.02953 11.7917 4.3701 15.6726 4.27753 19.746C4.18495 23.8194 5.66636 27.7717 8.41357 30.7807C11.1608 33.7896 14.9623 35.6237 19.0273 35.9012C23.0923 36.1787 27.1078 34.8784 30.2385 32.2707L39.2336 41.2677C39.3672 41.4012 39.5257 41.5072 39.7002 41.5795C39.8747 41.6517 40.0618 41.689 40.2507 41.689C40.4395 41.689 40.6266 41.6517 40.8011 41.5795C40.9756 41.5072 41.1341 41.4012 41.2677 41.2677C41.4012 41.1341 41.5072 40.9756 41.5795 40.8011C41.6517 40.6266 41.689 40.4395 41.689 40.2507C41.689 40.0618 41.6517 39.8747 41.5795 39.7002C41.5072 39.5257 41.4012 39.3672 41.2677 39.2336ZM7.18815 20.1257C7.18815 17.5669 7.94693 15.0655 9.36852 12.938C10.7901 10.8104 12.8107 9.15217 15.1747 8.17296C17.5387 7.19375 20.14 6.93755 22.6496 7.43674C25.1593 7.93594 27.4645 9.16812 29.2738 10.9775C31.0832 12.7868 32.3154 15.092 32.8146 17.6017C33.3138 20.1113 33.0576 22.7126 32.0783 25.0766C31.0991 27.4406 29.4409 29.4612 27.3133 30.8828C25.1858 32.3044 22.6844 33.0632 20.1257 33.0632C16.6956 33.0593 13.4071 31.6951 10.9817 29.2696C8.55623 26.8442 7.19196 23.5557 7.18815 20.1257Z" fill="black"/>
</svg>
