<svg width="30" height="29" viewBox="0 0 30 29" fill="none" xmlns="http://www.w3.org/2000/svg">
<path d="M14.9285 7.34461C10.8605 7.34461 7.57926 10.5746 7.57926 14.579C7.57926 18.5834 10.8605 21.8133 14.9285 21.8133C18.9964 21.8133 22.2777 18.5834 22.2777 14.579C22.2777 10.5746 18.9964 7.34461 14.9285 7.34461ZM14.9285 19.2823C12.2996 19.2823 10.1505 17.173 10.1505 14.579C10.1505 11.9849 12.2932 9.8757 14.9285 9.8757C17.5637 9.8757 19.7064 11.9849 19.7064 14.579C19.7064 17.173 17.5573 19.2823 14.9285 19.2823ZM24.2924 7.04869C24.2924 7.98683 23.5249 8.73608 22.5783 8.73608C21.6252 8.73608 20.8641 7.98053 20.8641 7.04869C20.8641 6.11685 21.6316 5.3613 22.5783 5.3613C23.5249 5.3613 24.2924 6.11685 24.2924 7.04869ZM29.1599 8.76126C29.0512 6.50092 28.5267 4.49872 26.8445 2.8491C25.1687 1.19949 23.1347 0.683201 20.8385 0.569869C18.4719 0.437648 11.3786 0.437648 9.012 0.569869C6.72217 0.676905 4.68819 1.1932 3.006 2.84281C1.3238 4.49242 0.805714 6.49462 0.690583 8.75497C0.556264 11.0846 0.556264 18.0671 0.690583 20.3967C0.799318 22.657 1.3238 24.6592 3.006 26.3089C4.68819 27.9585 6.71577 28.4748 9.012 28.5881C11.3786 28.7203 18.4719 28.7203 20.8385 28.5881C23.1347 28.4811 25.1687 27.9648 26.8445 26.3089C28.5203 24.6592 29.0448 22.657 29.1599 20.3967C29.2942 18.0671 29.2942 11.0909 29.1599 8.76126ZM26.1026 22.8963C25.6037 24.1304 24.6378 25.0811 23.3778 25.5785C21.4909 26.3152 17.0136 26.1452 14.9285 26.1452C12.8433 26.1452 8.35959 26.3089 6.47912 25.5785C5.22547 25.0874 4.25965 24.1367 3.75435 22.8963C3.006 21.0389 3.17869 16.6316 3.17869 14.579C3.17869 12.5264 3.01239 8.11275 3.75435 6.26166C4.25325 5.0276 5.21907 4.07687 6.47912 3.57947C8.36598 2.84281 12.8433 3.01281 14.9285 3.01281C17.0136 3.01281 21.4973 2.8491 23.3778 3.57947C24.6314 4.07057 25.5973 5.0213 26.1026 6.26166C26.8509 8.11905 26.6782 12.5264 26.6782 14.579C26.6782 16.6316 26.8509 21.0452 26.1026 22.8963Z" fill="white"/>
</svg>
