<svg width="30" height="28" viewBox="0 0 30 28" fill="none" xmlns="http://www.w3.org/2000/svg">
<path d="M7.54655 27.187V9.3882H1.32784V27.187H7.54655ZM4.438 6.95663C6.60657 6.95663 7.9564 5.58989 7.9564 3.88192C7.916 2.13544 6.60665 0.806641 4.47915 0.806641C2.35198 0.806641 0.960938 2.13547 0.960938 3.88192C0.960938 5.58997 2.31044 6.95663 4.3974 6.95663H4.4378H4.438ZM10.9886 27.187H17.2073V17.2473C17.2073 16.7153 17.2477 16.1839 17.4119 15.8036C17.8615 14.7408 18.8847 13.64 20.6026 13.64C22.8529 13.64 23.7531 15.2722 23.7531 17.6649V27.1868H29.9714V16.9812C29.9714 11.5141 26.9035 8.97034 22.8119 8.97034C19.4572 8.97034 17.9842 10.7542 17.1659 11.9692H17.2074V9.38783H10.9887C11.0703 11.058 10.9887 27.1866 10.9887 27.1866L10.9886 27.187Z" fill="white"/>
</svg>
