<svg width="22" height="20" viewBox="0 0 22 20" fill="none" xmlns="http://www.w3.org/2000/svg">
<path d="M15.6875 0.762695C13.7516 0.762695 12.0566 1.61715 11 3.06144C9.94344 1.61715 8.24844 0.762695 6.3125 0.762695C4.77146 0.764478 3.29404 1.39359 2.20436 2.512C1.11468 3.63042 0.501737 5.1468 0.5 6.72848C0.5 13.464 10.2303 18.916 10.6447 19.1411C10.7539 19.2014 10.876 19.233 11 19.233C11.124 19.233 11.2461 19.2014 11.3553 19.1411C11.7697 18.916 21.5 13.464 21.5 6.72848C21.4983 5.1468 20.8853 3.63042 19.7956 2.512C18.706 1.39359 17.2285 0.764478 15.6875 0.762695ZM11 17.5823C9.28813 16.5585 2 11.8946 2 6.72848C2.00149 5.55504 2.45632 4.4301 3.26475 3.60035C4.07317 2.7706 5.16921 2.30378 6.3125 2.30225C8.13594 2.30225 9.66687 3.29911 10.3062 4.90025C10.3628 5.04144 10.4589 5.1622 10.5824 5.24718C10.7059 5.33216 10.8513 5.37754 11 5.37754C11.1487 5.37754 11.2941 5.33216 11.4176 5.24718C11.5411 5.1622 11.6372 5.04144 11.6937 4.90025C12.3331 3.29623 13.8641 2.30225 15.6875 2.30225C16.8308 2.30378 17.9268 2.7706 18.7353 3.60035C19.5437 4.4301 19.9985 5.55504 20 6.72848C20 11.887 12.71 16.5576 11 17.5823Z" fill="black"/>
</svg>
