<svg width="19" height="18" viewBox="0 0 19 18" fill="none" xmlns="http://www.w3.org/2000/svg">
<path d="M18.3386 16.9343C17.0447 14.6383 15.0507 12.9919 12.7236 12.2115C13.8747 11.5082 14.769 10.4365 15.2692 9.16101C15.7694 7.88553 15.8479 6.47678 15.4925 5.15111C15.1371 3.82543 14.3676 2.65613 13.3021 1.82278C12.2366 0.98942 10.9341 0.538086 9.59446 0.538086C8.25486 0.538086 6.95229 0.98942 5.88679 1.82278C4.82129 2.65613 4.05178 3.82543 3.69643 5.15111C3.34107 6.47678 3.41953 7.88553 3.91974 9.16101C4.41996 10.4365 5.31427 11.5082 6.46535 12.2115C4.13827 12.9911 2.14424 14.6374 0.850285 16.9343C0.802833 17.0137 0.771359 17.1021 0.757719 17.1942C0.744079 17.2863 0.748549 17.3803 0.770867 17.4706C0.793184 17.5609 0.832897 17.6457 0.887661 17.72C0.942425 17.7942 1.01113 17.8565 1.08973 17.9031C1.16832 17.9497 1.25521 17.9797 1.34527 17.9912C1.43534 18.0028 1.52674 17.9958 1.6141 17.9705C1.70146 17.9452 1.783 17.9022 1.85392 17.8441C1.92483 17.7859 1.98368 17.7138 2.02699 17.6319C3.62766 14.7927 6.45686 13.0975 9.59446 13.0975C12.7321 13.0975 15.5613 14.7927 17.1619 17.6319C17.2052 17.7138 17.2641 17.7859 17.335 17.8441C17.4059 17.9022 17.4875 17.9452 17.5748 17.9705C17.6622 17.9958 17.7536 18.0028 17.8437 17.9912C17.9337 17.9797 18.0206 17.9497 18.0992 17.9031C18.1778 17.8565 18.2465 17.7942 18.3013 17.72C18.356 17.6457 18.3957 17.5609 18.4181 17.4706C18.4404 17.3803 18.4448 17.2863 18.4312 17.1942C18.4176 17.1021 18.3861 17.0137 18.3386 16.9343ZM4.83665 6.81896C4.83665 5.85314 5.11569 4.90901 5.63849 4.10596C6.16128 3.30291 6.90435 2.677 7.77373 2.3074C8.64311 1.93779 9.59974 1.84109 10.5227 2.02951C11.4456 2.21793 12.2934 2.68302 12.9587 3.36596C13.6241 4.0489 14.0773 4.91902 14.2609 5.86628C14.4444 6.81354 14.3502 7.79541 13.9901 8.68771C13.63 9.58001 13.0202 10.3427 12.2378 10.8793C11.4553 11.4158 10.5355 11.7022 9.59446 11.7022C8.33303 11.7009 7.12364 11.1859 6.23167 10.2704C5.3397 9.35494 4.838 8.11366 4.83665 6.81896Z" fill="black"/>
</svg>
